<svg width="138" height="207" viewBox="0 0 138 207" fill="none" xmlns="http://www.w3.org/2000/svg">
<path d="M54.8986 125.209C55.4946 125.78 56.2549 126.088 57.1569 126.123C57.5053 126.137 57.879 126.109 58.2674 126.041C61.0418 125.552 65.5359 122.805 67.3398 121.646C68.9742 120.597 70.467 119.534 71.6575 118.573C73.6829 116.939 74.2851 116.036 74.584 115.433C75.5876 113.401 74.9029 110.875 72.4282 107.481C71.0023 105.526 69.4356 103.908 69.3705 103.84C68.333 102.772 66.6194 102.747 65.5524 103.785C65.0363 104.287 64.746 104.961 64.7356 105.683C64.7252 106.405 64.9954 107.086 65.4977 107.603C65.5455 107.652 66.6907 108.842 67.8021 110.308C69.0142 111.908 69.4209 112.832 69.5547 113.231C69.5547 113.232 69.5547 113.233 69.5547 113.234C68.7752 114.044 66.7185 115.668 63.8867 117.443C61.7378 118.791 60.1521 119.601 59.1311 120.065C59.1293 120.065 59.1276 120.065 59.1276 120.062C59.2623 118.22 59.649 115.74 60.2025 113.188C61.3138 108.068 62.6094 104.749 63.3436 103.832C64.2742 102.669 64.0848 100.967 62.9222 100.036C61.7596 99.1066 60.0565 99.2951 59.1267 100.458C56.8284 103.33 55.1827 110.748 54.7335 112.953C54.2286 115.428 53.8776 117.81 53.7437 119.66C53.5283 122.651 53.8524 124.206 54.9003 125.21L54.8986 125.209Z" fill="#1F8F86"/>
<path d="M53.5472 103.96C53.6141 102.268 51.8901 100.826 49.697 100.739C47.5038 100.652 45.6713 101.954 45.6044 103.646C45.5375 105.337 47.2614 106.78 49.4546 106.867C51.6477 106.954 53.4803 105.652 53.5472 103.96Z" fill="#1F8F86"/>
<path d="M41.3312 65.7948C44.8703 69.3339 48.9916 72.1119 53.5813 74.0539C58.3343 76.0646 63.3827 77.0838 68.5841 77.0838C73.7854 77.0838 78.8339 76.0646 83.5869 74.0539C88.1765 72.1127 92.2987 69.3339 95.8369 65.7948C99.3761 62.2557 102.154 58.1344 104.095 53.5447C106.106 48.7917 107.125 43.7433 107.125 38.5419C107.125 33.3406 106.106 28.2921 104.095 23.5391C102.154 18.9495 99.3752 14.8282 95.8369 11.289C92.2978 7.74992 88.1765 4.97197 83.5869 3.02993C78.8339 1.01925 73.7854 0 68.5841 0C63.3827 0 58.3343 1.01925 53.5813 3.02993C48.9916 4.97111 44.8703 7.74992 41.3312 11.289C37.7921 14.8282 35.0141 18.9495 33.0721 23.5391C31.0614 28.2921 30.0421 33.3406 30.0421 38.5419C30.0421 43.7433 31.0614 48.7917 33.0721 53.5447C35.0133 58.1344 37.7921 62.2566 41.3312 65.7948ZM68.5841 5.38732C86.8653 5.38732 101.739 20.2607 101.739 38.5419C101.739 56.8232 86.8653 71.6965 68.5841 71.6965C50.3028 71.6965 35.4295 56.8232 35.4295 38.5419C35.4295 20.2607 50.3028 5.38732 68.5841 5.38732Z" fill="#1F8F86"/>
<path d="M137.158 173.166L135.017 107.57C134.746 99.3 131.324 91.5762 125.378 85.8213C119.432 80.0664 111.601 76.8975 103.326 76.8975C101.838 76.8975 100.632 78.1035 100.632 79.5911C100.632 81.0787 101.838 82.2848 103.326 82.2848C117.611 82.2848 129.166 93.4687 129.632 107.746L131.773 173.339C131.885 176.878 130.589 180.227 128.123 182.769C125.663 185.306 122.362 186.702 118.829 186.702H118.809L71.7599 186.634C66.7453 186.627 62.657 182.541 62.6457 177.526C62.6344 172.528 66.5394 168.511 71.5357 168.381L108.853 167.409C109.618 167.389 110.338 167.045 110.834 166.463C111.331 165.88 111.555 165.114 111.453 164.356L106.135 124.948C105.936 123.473 104.58 122.439 103.105 122.638C101.631 122.837 100.597 124.194 100.796 125.668L105.712 162.102L71.3949 162.996C67.5838 163.095 64.0221 164.656 61.3649 167.389C58.7078 170.122 57.2489 173.727 57.2575 177.539C57.2662 181.405 58.7773 185.04 61.5127 187.774C64.248 190.506 67.8845 192.015 71.7512 192.021L118.801 192.09H118.829C123.832 192.09 128.506 190.112 131.99 186.521C135.481 182.922 137.317 178.18 137.157 173.166H137.158Z" fill="#1F8F86"/>
<path d="M18.362 186.702H18.3386C14.8055 186.702 11.5045 185.306 9.04371 182.769C6.57771 180.227 5.28215 176.878 5.39424 173.342L7.53614 107.746C8.00188 93.4687 19.5577 82.2848 33.8419 82.2848C35.3295 82.2848 36.5355 81.0787 36.5355 79.5911C36.5355 78.1035 35.3295 76.8975 33.8419 76.8975C25.5671 76.8975 17.7355 80.0664 11.7904 85.8213C5.84434 91.5762 2.42165 99.3 2.15142 107.57L0.00953119 173.169C-0.149482 178.18 1.68568 182.923 5.17614 186.521C8.66139 190.113 13.3344 192.09 18.3377 192.09H18.3655C19.8531 192.087 21.0574 190.88 21.0548 189.393C21.0531 187.906 19.847 186.702 18.3612 186.702H18.362Z" fill="#1F8F86"/>
<path d="M29.9615 155.753C31.2892 155.753 32.4449 154.771 32.6273 153.419L34.4373 140.003C34.6363 138.528 33.6023 137.172 32.1277 136.973C30.654 136.774 29.2968 137.808 29.0978 139.282L27.2878 152.698C27.0888 154.173 28.1229 155.529 29.5974 155.728C29.7199 155.745 29.8407 155.753 29.9606 155.753H29.9615Z" fill="#1F8F86"/>
<path d="M54.1313 174.195C53.583 172.811 52.0172 172.135 50.6348 172.684L41.6519 176.245C40.6761 176.631 40.0139 177.55 39.9549 178.598L38.8374 198.456C38.8357 198.493 38.8339 198.531 38.8331 198.568C38.8088 200.248 37.422 201.614 35.7415 201.614C34.061 201.614 32.6498 200.228 32.6498 198.523V174.011C32.6498 171.353 34.3321 168.966 36.8354 168.071C36.8389 168.071 36.8415 168.069 36.845 168.068L66.981 157.181C68.3799 156.676 69.1046 155.131 68.5989 153.733C68.0932 152.334 66.5491 151.609 65.1501 152.115L51.2813 157.125C50.8129 153.061 50.6287 148.891 50.4897 145.011C56.2819 144.591 62.8527 143.268 69.5104 141.157C77.0492 138.765 83.9145 135.602 89.1576 132.16C90.7243 134.709 92.5307 137.192 94.5849 139.643C96.8415 142.337 101.186 139.179 98.6132 136.107C96.7355 133.865 95.0054 131.485 93.4692 128.929C93.9601 128.479 94.2564 128.177 94.2564 128.177C94.982 127.182 94.9464 125.783 94.0966 124.823C93.2511 123.868 91.8773 123.658 90.8042 124.246C90.6243 123.931 90.454 123.607 90.295 123.272L82.5599 107.003C82.5364 106.934 82.5095 106.865 82.4773 106.794C80.4909 102.523 77.8938 98.058 74.213 94.5111C66.9792 87.5415 57.6166 86.1747 46.3831 90.4498C43.4966 91.5481 41.253 94.5936 39.2728 97.2812C38.588 98.211 37.9416 99.0886 37.3655 99.7498C36.9423 100.236 36.6868 100.452 36.5713 100.539C36.5713 100.539 36.5713 100.539 36.5704 100.539L36.0769 100.602C27.6309 101.862 25.2683 102.326 23.8754 102.696C22.6164 103.061 20.4406 103.855 19.7646 107.235C19.1928 110.092 19.8897 114.283 21.6275 118.444C23.4888 122.901 26.1416 126.281 28.9065 127.718C29.8067 128.199 31.1475 128.403 35.0611 128.91C37.7513 129.258 42.2532 129.841 43.5322 130.443C43.5383 130.445 43.5444 130.448 43.5496 130.451C43.6851 130.645 44.1196 131.434 44.4489 133.885C44.6722 135.551 44.7991 137.546 44.8973 139.801C43.6374 139.986 42.6511 141.051 42.6094 142.368C42.5634 143.811 43.666 145.023 45.0928 145.127C45.2501 149.543 45.4638 154.323 46.0755 159.004L35.0229 162.997C30.3828 164.656 27.2651 169.08 27.2651 174.009V198.521C27.2651 203.197 31.0684 207 35.7441 207C37.9859 207 40.0991 206.134 41.6953 204.56C43.2776 203.001 44.1726 200.925 44.2204 198.706L45.2379 180.618L52.6203 177.691C54.0036 177.143 54.6796 175.577 54.1313 174.195ZM35.7536 123.554C34.1374 123.345 31.9312 123.06 31.3204 122.885C29.9675 122.143 28.4851 120.286 27.2521 117.785C26.0651 115.378 25.2301 112.624 25.019 110.417C24.9268 109.455 24.972 108.808 25.0389 108.404C25.0885 108.107 25.3031 107.866 25.5916 107.78C25.6976 107.749 28.5259 107.02 36.7685 105.957C37.0414 105.923 37.2812 105.891 37.4862 105.864C39.8888 105.552 41.5363 103.315 43.6226 100.483C45.085 98.4986 46.9045 96.0291 48.3061 95.4956C57.5427 91.9799 64.7921 92.9297 70.4679 98.3987C73.4709 101.292 75.7032 105.089 77.4601 108.818C77.5062 108.916 77.5592 109.006 77.6166 109.09L85.4534 125.574C85.7688 126.238 86.1172 126.877 86.4961 127.488C81.644 130.716 75.0272 133.78 67.8925 136.043C61.7874 137.979 55.6224 139.228 50.2968 139.641C49.9683 131.996 49.3175 126.976 45.7462 125.516C43.8381 124.648 40.4015 124.154 35.7554 123.553L35.7536 123.554Z" fill="#1F8F86"/>
<path d="M53.6784 186.702H51.6269C50.1393 186.702 48.9332 187.908 48.9332 189.396C48.9332 190.883 50.1393 192.089 51.6269 192.089H53.6784C55.166 192.089 56.3721 190.883 56.3721 189.396C56.3721 187.908 55.166 186.702 53.6784 186.702Z" fill="#1F8F86"/>
</svg>
