<svg width="25" height="4" viewBox="0 0 25 4" fill="none" xmlns="http://www.w3.org/2000/svg">
<path d="M1.81817 3.63634C2.82232 3.63634 3.63634 2.82232 3.63634 1.81817C3.63634 0.814022 2.82232 0 1.81817 0C0.814022 0 0 0.814022 0 1.81817C0 2.82232 0.814022 3.63634 1.81817 3.63634Z" fill="#2E2E2E"/>
<path d="M12.4363 3.63634C13.4404 3.63634 14.2544 2.82232 14.2544 1.81817C14.2544 0.814022 13.4404 0 12.4363 0C11.4321 0 10.6181 0.814022 10.6181 1.81817C10.6181 2.82232 11.4321 3.63634 12.4363 3.63634Z" fill="#2E2E2E"/>
<path d="M23.0544 3.63634C24.0585 3.63634 24.8725 2.82232 24.8725 1.81817C24.8725 0.814022 24.0585 0 23.0544 0C22.0502 0 21.2362 0.814022 21.2362 1.81817C21.2362 2.82232 22.0502 3.63634 23.0544 3.63634Z" fill="#2E2E2E"/>
</svg>
