<svg width="21" height="21" viewBox="0 0 21 21" fill="none" xmlns="http://www.w3.org/2000/svg">
<path d="M0.5 4.996C0.5 2.51293 2.51293 0.5 4.996 0.5H15.187C17.6701 0.5 19.683 2.51293 19.683 4.996V15.187C19.683 17.6701 17.6701 19.683 15.187 19.683H4.996C2.51293 19.683 0.5 17.6701 0.5 15.187V4.996Z" stroke="#CFEAE7" stroke-linecap="round" stroke-linejoin="round"/>
<path d="M15.3659 4.45557C15.1676 4.4577 15.0067 4.61862 15.0067 4.81578C15.0078 5.01401 15.1687 5.17493 15.3669 5.17493C15.5652 5.17493 15.7261 5.01401 15.7261 4.81578C15.7261 4.61649 15.5652 4.45557 15.3669 4.45557" stroke="#CFEAE7" stroke-linecap="round" stroke-linejoin="round"/>
<ellipse cx="10.0919" cy="10.0915" rx="3.8366" ry="3.83661" stroke="#CFEAE7" stroke-linecap="round" stroke-linejoin="round"/>
</svg>
