<svg width="242" height="60" viewBox="0 0 242 60" fill="none" xmlns="http://www.w3.org/2000/svg">
<g clip-path="url(#clip0_5_2)">
<path d="M35.5784 14.311C34.1493 11.6235 32.1484 9.51757 29.5963 8.01335C27.0442 6.50914 24.0532 5.747 20.6232 5.747C18.5611 5.747 16.6113 6.1381 14.784 6.93032C14.784 6.93032 14.7738 6.93032 14.7636 6.93032C13.5794 7.44175 12.3034 7.70248 11.0171 7.55206L1.20685 6.43894C0.155386 6.43894 -0.702118 7.2813 -0.702118 8.3142V47.3436C-0.702118 48.3765 0.155386 49.2189 1.20685 49.2189H10.8231C11.8746 49.2189 12.7321 48.3765 12.7321 47.3436V39.4114C13.3752 39.7624 14.0388 40.0833 14.7738 40.354C16.6011 41.0259 18.5509 41.3669 20.613 41.3669C24.0328 41.3669 27.0238 40.6047 29.5861 39.0704C32.1382 37.5361 34.1391 35.4403 35.5682 32.7728C36.9974 30.1053 37.712 27.0367 37.712 23.5569C37.712 20.0772 36.9974 16.9885 35.5682 14.301L35.5784 14.311ZM23.1242 26.5553C22.6342 27.4378 21.9401 28.1298 21.0519 28.6412C20.1638 29.1526 19.1532 29.4033 18.0303 29.4033C16.9073 29.4033 15.9069 29.1526 15.0392 28.6412C14.1715 28.1298 13.4977 27.4378 13.0384 26.5553C12.5688 25.6729 12.334 24.6801 12.334 23.567C12.334 22.4538 12.579 21.3909 13.069 20.5084C13.559 19.6259 14.2429 18.944 15.1107 18.4526C15.9784 17.9612 16.9788 17.7206 18.1017 17.7206C19.2246 17.7206 20.2251 17.9713 21.0928 18.4827C21.9605 18.9941 22.6444 19.6761 23.1344 20.5385C23.6244 21.4009 23.8694 22.4037 23.8694 23.567C23.8694 24.7302 23.6244 25.6829 23.1344 26.5553H23.1242Z" fill="#174340"/>
<path d="M110.59 23.5469C111.529 23.5469 112.703 23.7675 114.111 24.2088C115.02 24.4895 115.878 24.9609 116.694 25.6027C116.878 25.7431 117.072 25.8433 117.286 25.9236C117.45 22.6945 119.563 19.295 123.718 17.8409C122.268 16.5874 120.533 15.5846 118.481 14.8525C115.622 13.8297 112.662 13.3182 109.61 13.3182C106.557 13.3182 103.964 13.8196 101.688 14.8124C100.269 15.4342 99.0745 16.2063 98.0639 17.0988V15.3038C98.0639 14.8626 97.6964 14.5015 97.2472 14.5015H91.4897C91.0405 14.5015 90.673 14.1405 90.673 13.6993V4.27287C90.673 3.83163 90.3055 3.47062 89.8564 3.47062H77.6982C77.249 3.47062 76.8815 3.83163 76.8815 4.27287V13.6893C76.8815 14.1305 76.514 14.4915 76.0649 14.4915H70.3073C69.8582 14.4915 69.4907 14.8525 69.4907 15.2938V17.891C68.5821 17.1289 67.6021 16.437 66.4996 15.8553C63.7331 14.3912 60.5379 13.6592 56.9344 13.6592C53.3308 13.6592 49.9927 14.4313 47.0833 15.9857C44.1739 17.5401 41.8872 19.666 40.2233 22.3536C38.5593 25.0411 37.7222 28.1298 37.7222 31.6095C37.7222 35.0893 38.5797 38.2582 40.2947 40.9657C42.0097 43.6834 44.3883 45.7893 47.4406 47.2935C50.4929 48.7977 54.0352 49.5598 58.0675 49.5598C61.2117 49.5598 63.9986 49.0685 66.4384 48.0957C68.2452 47.3737 69.8582 46.3809 71.2771 45.1274C72.0938 44.4054 72.1142 43.1418 71.3384 42.3797L67.1427 38.2682C66.4281 37.5662 65.3052 37.5662 64.5192 38.208C63.8454 38.7495 63.1411 39.1908 62.3958 39.5016C61.3444 39.9529 60.1398 40.2036 58.8025 40.2738C58.4248 40.334 58.0471 40.3641 57.6489 40.3641C56.2912 40.3641 55.056 40.0131 54.0556 39.4314C53.9841 39.3913 53.9127 39.3713 53.8514 39.3312C53.8514 39.3312 53.8514 39.3211 53.8514 39.3111C52.5754 38.4988 51.7383 37.2854 51.6975 35.9216C51.6975 35.8514 51.7587 35.7912 51.82 35.7912H62.4469L73.2371 35.721C74.1763 35.721 74.9828 35.0391 75.1257 34.1366C75.1869 33.7455 75.238 33.3745 75.2686 33.0335C75.3401 32.2714 75.3707 31.5393 75.3707 30.8373C75.3707 28.9821 75.1053 27.2473 74.6153 25.6227H76.0649C76.514 25.6227 76.8815 25.9837 76.8815 26.425V47.9253C76.8815 48.3665 77.249 48.7275 77.6982 48.7275H89.8564C90.3055 48.7275 90.673 48.3665 90.673 47.9253V26.425C90.673 25.9837 91.0405 25.6227 91.4897 25.6227H94.5931C94.6951 27.3175 95.0422 28.7515 95.6751 29.9047C96.4306 31.2686 97.4106 32.3416 98.6254 33.1037C99.8402 33.8658 101.126 34.4776 102.464 34.9088C103.801 35.35 105.067 35.711 106.261 35.9918C107.456 36.2726 108.446 36.5734 109.211 36.8943C109.987 37.2152 110.375 37.7066 110.375 38.3584C110.375 38.7295 110.151 39.0203 109.701 39.2309C109.252 39.4415 108.63 39.5418 107.833 39.5418C106.098 39.5418 104.444 39.2209 102.872 38.569C101.851 38.1478 100.912 37.6264 100.085 37.0046C99.3195 36.433 98.2477 36.5233 97.5841 37.1952L92.9801 41.8783C92.1941 42.6806 92.2655 43.9842 93.1639 44.6661C94.0826 45.3781 95.1239 46.0299 96.2672 46.6417C98.1149 47.6144 100.126 48.3765 102.28 48.9381C104.434 49.4896 106.598 49.7704 108.752 49.7704C111.498 49.7704 113.866 49.3693 115.949 48.6573C114.132 46.8924 113.315 44.6661 113.315 42.48C113.315 38.0476 115.796 34.7884 119.798 32.8029V32.6224C118.909 31.7299 118.113 30.356 117.654 28.8317C117.113 28.571 116.572 28.3203 116.01 28.1197C114.693 27.6584 113.438 27.2874 112.243 27.0066C111.049 26.7258 110.069 26.425 109.324 26.1041C108.579 25.7832 108.201 25.362 108.201 24.8506C108.201 24.4795 108.374 24.1686 108.732 23.9079C109.089 23.6572 109.701 23.5268 110.6 23.5268L110.59 23.5469ZM62.9165 27.498H51.2483C51.1768 27.498 51.1258 27.4378 51.1258 27.3676C51.1973 24.1887 53.831 21.6416 57.0875 21.6416C60.344 21.6416 62.9777 24.1987 63.0492 27.3676C63.0492 27.4378 62.9879 27.498 62.9267 27.498H62.9165Z" fill="#174340"/>
<path d="M126.076 55.0252C126.076 56.0581 126.933 56.9004 127.985 56.9004H137.601C138.652 56.9004 139.51 56.0581 139.51 55.0252V47.4239C135.508 50.9136 130.618 52.2173 126.065 52.127V55.0252H126.076Z" fill="#1F8F86"/>
<path d="M127.689 29.8245C129.741 28.2802 130.567 27.1269 130.567 25.5726C130.567 24.1887 129.73 22.6644 128.036 22.6644C127.168 22.6644 126.515 23.0455 126.076 23.6171C125.678 24.1386 125.463 24.8004 125.463 25.4723C125.463 26.2344 125.657 26.9765 126.076 27.7487C126.433 28.4105 126.943 29.0925 127.689 29.8345V29.8245Z" fill="#1F8F86"/>
<path d="M127.148 45.6088C128.75 45.6088 130.077 45.0873 130.823 44.4856C129.322 43.0716 127.719 41.3368 126.076 39.5317C125.371 38.7596 124.657 37.9774 123.932 37.1952C123.86 37.2453 123.82 37.3055 123.748 37.3657C122.656 38.2782 121.962 39.4114 121.962 40.9457C121.962 41.8382 122.217 42.6906 122.687 43.4226C123.37 44.4756 124.514 45.2578 126.055 45.5085C126.392 45.5586 126.749 45.5987 127.127 45.5987L127.148 45.6088Z" fill="#1F8F86"/>
<path d="M176.291 3.09958H164.132C163.683 3.09958 163.316 3.46059 163.316 3.90183V24.1787C163.04 23.4266 162.724 22.6945 162.346 21.9925C160.917 19.305 158.916 17.1991 156.364 15.6949C153.812 14.1907 150.821 13.4285 147.391 13.4285C145.329 13.4285 143.379 13.8196 141.552 14.6119C141.552 14.6119 141.541 14.6119 141.531 14.6119C140.347 15.1233 139.071 15.384 137.795 15.2336L127.985 14.1205C126.933 14.1205 126.076 14.9628 126.076 15.9957V17.2593C126.77 17.159 127.495 17.0888 128.281 17.0888C134.018 17.0888 138.316 20.2978 138.316 25.362C138.316 28.7415 136.304 31.7198 131.864 33.9461L131.823 34.1567C133.242 35.6809 134.732 37.4659 136.059 38.8097C136.233 38.9902 136.529 38.9501 136.652 38.7395C137.805 36.8141 138.703 34.1466 139.112 31.8803C139.112 31.8502 139.142 31.8301 139.163 31.8C139.153 31.6095 139.102 31.429 139.102 31.2284C139.102 30.0652 139.347 29.0523 139.837 28.1699C140.327 27.2874 141.011 26.6055 141.878 26.1141C142.746 25.6227 143.746 25.3821 144.869 25.3821C145.992 25.3821 146.993 25.6328 147.86 26.1442C148.728 26.6556 149.412 27.3375 149.902 28.2C150.392 29.0624 150.637 30.0652 150.637 31.2284C150.637 32.3917 150.392 33.3444 149.902 34.2168C149.412 35.0993 148.718 35.7912 147.83 36.3027C147.289 36.6135 146.676 36.7941 146.043 36.9244C144.594 41.4872 142.389 44.8366 139.765 47.2032C140.337 47.5041 140.919 47.7949 141.562 48.0356C143.389 48.7074 145.339 49.0484 147.401 49.0484C150.821 49.0484 153.812 48.2863 156.374 46.752C158.926 45.2177 160.927 43.1218 162.356 40.4543C162.724 39.7624 163.05 39.0303 163.326 38.2882V47.5542C163.326 47.9955 163.694 48.3565 164.143 48.3565H176.301C176.75 48.3565 177.118 47.9955 177.118 47.5542V3.90183C177.118 3.46059 176.75 3.09958 176.301 3.09958H176.291Z" fill="#1F8F86"/>
<path d="M227.578 22.865C228.517 22.865 229.691 23.0856 231.099 23.5268C232.008 23.8076 232.865 24.279 233.682 24.9208C234.468 25.5425 235.591 25.5224 236.285 24.8104L241.002 20.0571C241.747 19.305 241.737 18.0916 240.961 17.3796C239.46 16.0158 237.633 14.9428 235.458 14.1706C232.6 13.1477 229.64 12.6363 226.587 12.6363C223.535 12.6363 220.942 13.1377 218.666 14.1305C216.389 15.1333 214.633 16.4771 213.388 18.1718C213.133 18.5128 212.929 18.8738 212.724 19.2348V15.7049C212.724 14.672 211.867 13.8297 210.815 13.8297H200.852C199.801 13.8297 198.943 14.672 198.943 15.7049V33.7254C198.943 34.7884 198.606 35.6609 197.922 36.3328C197.238 37.0046 196.411 37.3456 195.421 37.3456C194.717 37.3456 194.094 37.1952 193.553 36.8943C193.012 36.5935 192.593 36.1623 192.287 35.6107C191.981 35.0592 191.828 34.4274 191.828 33.7355V15.6949C191.828 14.662 190.97 13.8196 189.919 13.8196H179.955C178.904 13.8196 178.047 14.662 178.047 15.6949V33.575C178.047 36.5433 178.792 39.1908 180.303 41.5073C181.803 43.8238 183.855 45.6388 186.458 46.9325C189.061 48.2261 192.052 48.8779 195.431 48.8779C198.81 48.8779 201.801 48.2261 204.405 46.9325C206.467 45.9096 208.151 44.5558 209.509 42.9012C209.601 43.3123 209.784 43.7034 210.152 43.9842C211.071 44.6962 212.112 45.348 213.255 45.9597C215.103 46.9325 217.114 47.6946 219.268 48.2562C221.422 48.8178 223.586 49.0885 225.74 49.0885C230.334 49.0885 233.999 48.0957 236.714 46.1001C239.44 44.1045 240.797 41.417 240.797 38.0275C240.797 35.8514 240.42 34.0764 239.674 32.7026C238.919 31.3388 237.949 30.2357 236.755 29.3933C235.56 28.561 234.305 27.9091 232.988 27.4478C231.671 26.9865 230.415 26.6155 229.221 26.3347C228.027 26.0539 227.047 25.7531 226.301 25.4322C225.546 25.1113 225.179 24.6901 225.179 24.1787C225.179 23.8076 225.352 23.4968 225.709 23.236C226.067 22.9853 226.679 22.855 227.578 22.855V22.865ZM226.199 36.2224C226.975 36.5433 227.363 37.0347 227.363 37.6866C227.363 38.0576 227.139 38.3484 226.689 38.559C226.24 38.7696 225.618 38.8699 224.821 38.8699C223.086 38.8699 221.432 38.549 219.86 37.8971C218.839 37.476 217.9 36.9545 217.063 36.3328C216.297 35.7612 215.225 35.8514 214.562 36.5233L211.53 39.6019C212.316 37.7868 212.724 35.7812 212.724 33.575V29.3532C213.459 30.6568 214.419 31.6897 215.603 32.4218C216.818 33.1839 218.104 33.7956 219.441 34.2268C220.779 34.6681 222.045 35.0291 223.239 35.3099C224.433 35.5907 225.424 35.8915 226.189 36.2124L226.199 36.2224Z" fill="#1F8F86"/>
</g>
<defs>
<clipPath id="clip0_5_2">
<rect width="242" height="60" fill="white"/>
</clipPath>
</defs>
</svg>
