<svg width="214" height="51" viewBox="0 0 214 51" fill="none" xmlns="http://www.w3.org/2000/svg">
<path d="M33.1752 11.849C31.9317 9.51055 30.1908 7.67821 27.9702 6.3694C25.7496 5.06059 23.1471 4.39746 20.1627 4.39746C18.3685 4.39746 16.672 4.73775 15.0821 5.42706C15.0821 5.42706 15.0732 5.42706 15.0643 5.42706C14.0339 5.87205 12.9237 6.09892 11.8045 5.96803L3.26866 4.99951C2.35379 4.99951 1.60768 5.73245 1.60768 6.63116V40.5904C1.60768 41.4892 2.35379 42.2221 3.26866 42.2221H11.6357C12.5506 42.2221 13.2967 41.4892 13.2967 40.5904V33.6886C13.8563 33.994 14.4336 34.2732 15.0732 34.5088C16.6631 35.0934 18.3596 35.3901 20.1538 35.3901C23.1294 35.3901 25.7319 34.727 27.9613 33.392C30.1819 32.057 31.9228 30.2334 33.1663 27.9124C34.4098 25.5915 35.0316 22.9215 35.0316 19.8938C35.0316 16.8661 34.4098 14.1786 33.1663 11.8402L33.1752 11.849ZM22.3388 22.5027C21.9125 23.2705 21.3085 23.8726 20.5358 24.3176C19.763 24.7626 18.8837 24.9807 17.9066 24.9807C16.9296 24.9807 16.0591 24.7626 15.3041 24.3176C14.5491 23.8726 13.9629 23.2705 13.5632 22.5027C13.1546 21.7348 12.9503 20.871 12.9503 19.9025C12.9503 18.934 13.1635 18.0091 13.5898 17.2413C14.0162 16.4734 14.6113 15.8801 15.3663 15.4525C16.1213 15.025 16.9917 14.8156 17.9688 14.8156C18.9458 14.8156 19.8163 15.0337 20.5713 15.4787C21.3263 15.9237 21.9214 16.5171 22.3477 17.2674C22.7741 18.0178 22.9873 18.8904 22.9873 19.9025C22.9873 20.9147 22.7741 21.7436 22.3477 22.5027H22.3388Z" fill="white"/>
<path d="M98.442 19.8853C99.2591 19.8853 100.281 20.0772 101.506 20.4611C102.297 20.7054 103.043 21.1155 103.754 21.674C103.913 21.7961 104.082 21.8834 104.269 21.9532C104.411 19.1436 106.249 16.1857 109.865 14.9205C108.603 13.8298 107.093 12.9573 105.308 12.3203C102.821 11.4303 100.245 10.9853 97.5893 10.9853C94.9335 10.9853 92.6774 11.4216 90.6966 12.2854C89.462 12.8264 88.4228 13.4983 87.5434 14.2748V12.713C87.5434 12.3291 87.2237 12.0149 86.8329 12.0149H81.8233C81.4325 12.0149 81.1127 11.7008 81.1127 11.3169V3.11502C81.1127 2.73111 80.7929 2.41699 80.4021 2.41699H69.8234C69.4325 2.41699 69.1128 2.73111 69.1128 3.11502V11.3082C69.1128 11.6921 68.793 12.0062 68.4022 12.0062H63.3926C63.0018 12.0062 62.682 12.3203 62.682 12.7042V14.9641C61.8915 14.301 61.0388 13.6989 60.0795 13.1929C57.6724 11.919 54.8923 11.282 51.7569 11.282C48.6214 11.282 45.7169 11.9539 43.1855 13.3063C40.654 14.6587 38.6644 16.5085 37.2166 18.8469C35.7688 21.1853 35.0405 23.8728 35.0405 26.9005C35.0405 29.9282 35.7866 32.6854 37.2788 35.0413C38.771 37.4059 40.8406 39.2382 43.4964 40.547C46.1522 41.8558 49.2343 42.519 52.7428 42.519C55.4785 42.519 57.9034 42.0914 60.0262 41.245C61.5984 40.6168 63.0018 39.753 64.2364 38.6623C64.947 38.0341 64.9648 36.9347 64.2897 36.2716L60.6391 32.6942C60.0173 32.0834 59.0403 32.0834 58.3564 32.6418C57.7701 33.113 57.1573 33.4969 56.5089 33.7674C55.594 34.16 54.5459 34.3782 53.3823 34.4392C53.0537 34.4916 52.725 34.5178 52.3786 34.5178C51.1973 34.5178 50.1225 34.2124 49.2521 33.7063C49.1899 33.6714 49.1277 33.6539 49.0744 33.619C49.0744 33.619 49.0744 33.6103 49.0744 33.6016C47.9641 32.8948 47.2358 31.8391 47.2003 30.6524C47.2003 30.5913 47.2536 30.539 47.3068 30.539H56.5533L65.9418 30.4779C66.759 30.4779 67.4607 29.8846 67.585 29.0993C67.6383 28.759 67.6827 28.4362 67.7094 28.1395C67.7716 27.4764 67.7982 26.8394 67.7982 26.2286C67.7982 24.6144 67.5673 23.1049 67.1409 21.6914H68.4022C68.793 21.6914 69.1128 22.0055 69.1128 22.3894V41.0967C69.1128 41.4806 69.4325 41.7948 69.8234 41.7948H80.4021C80.7929 41.7948 81.1127 41.4806 81.1127 41.0967V22.3894C81.1127 22.0055 81.4325 21.6914 81.8233 21.6914H84.5235C84.6123 23.166 84.9143 24.4137 85.465 25.4172C86.1223 26.6038 86.975 27.5374 88.032 28.2006C89.0889 28.8637 90.2081 29.3959 91.3717 29.7711C92.5353 30.1551 93.6367 30.4692 94.6759 30.7135C95.7151 30.9578 96.5767 31.2196 97.2429 31.4988C97.9179 31.778 98.2554 32.2055 98.2554 32.7727C98.2554 33.0955 98.06 33.3486 97.6692 33.5318C97.2784 33.715 96.7366 33.8023 96.0437 33.8023C94.5338 33.8023 93.0948 33.5231 91.727 32.9559C90.8387 32.5894 90.0216 32.1357 89.3021 31.5947C88.636 31.0974 87.7033 31.1759 87.126 31.7605L83.1201 35.8353C82.4361 36.5333 82.4983 37.6676 83.28 38.261C84.0794 38.8805 84.9854 39.4476 85.9802 39.9799C87.5878 40.8262 89.3377 41.4894 91.2118 41.978C93.086 42.4579 94.969 42.7022 96.8432 42.7022C99.2325 42.7022 101.293 42.3532 103.105 41.7337C101.524 40.198 100.814 38.261 100.814 36.3588C100.814 32.5022 102.972 29.6664 106.454 27.9388V27.7817C105.681 27.0052 104.988 25.8098 104.588 24.4835C104.118 24.2567 103.647 24.0385 103.158 23.864C102.013 23.4627 100.92 23.1398 99.8809 22.8955C98.8417 22.6512 97.989 22.3894 97.3406 22.1102C96.6922 21.831 96.3635 21.4646 96.3635 21.0196C96.3635 20.6967 96.5145 20.4262 96.8254 20.1994C97.1363 19.9812 97.6692 19.8678 98.4508 19.8678L98.442 19.8853ZM56.9619 23.3231H46.8094C46.7473 23.3231 46.7029 23.2707 46.7029 23.2096C46.765 20.4437 49.0567 18.2274 51.8901 18.2274C54.7235 18.2274 57.0152 20.4524 57.0773 23.2096C57.0773 23.2707 57.024 23.3231 56.9707 23.3231H56.9619Z" fill="white"/>
<path d="M111.916 47.274C111.916 48.1727 112.662 48.9057 113.577 48.9057H121.944C122.859 48.9057 123.605 48.1727 123.605 47.274V40.6602C120.124 43.6966 115.869 44.8309 111.907 44.7524V47.274H111.916Z" fill="#1F8F86"/>
<path d="M113.32 25.3471C115.105 24.0034 115.825 23 115.825 21.6476C115.825 20.4434 115.096 19.1172 113.622 19.1172C112.867 19.1172 112.298 19.4488 111.916 19.9461C111.57 20.3998 111.383 20.9757 111.383 21.5603C111.383 22.2234 111.552 22.8691 111.916 23.541C112.227 24.1168 112.671 24.7102 113.32 25.3559V25.3471Z" fill="#1F8F86"/>
<path d="M112.849 39.0809C114.243 39.0809 115.398 38.6271 116.047 38.1036C114.741 36.8733 113.346 35.3638 111.916 33.7933C111.303 33.1214 110.682 32.4408 110.051 31.7603C109.989 31.8039 109.953 31.8562 109.891 31.9086C108.941 32.7026 108.337 33.6886 108.337 35.0236C108.337 35.8001 108.559 36.5418 108.967 37.1787C109.563 38.0949 110.557 38.7755 111.899 38.9936C112.192 39.0372 112.503 39.0721 112.831 39.0721L112.849 39.0809Z" fill="#1F8F86"/>
<path d="M155.608 2.09424H145.029C144.639 2.09424 144.319 2.40835 144.319 2.79227V20.435C144.079 19.7806 143.804 19.1437 143.475 18.5329C142.231 16.1945 140.491 14.3622 138.27 13.0533C136.049 11.7445 133.447 11.0814 130.462 11.0814C128.668 11.0814 126.972 11.4217 125.382 12.111C125.382 12.111 125.373 12.111 125.364 12.111C124.334 12.556 123.223 12.7829 122.113 12.652L113.577 11.6835C112.662 11.6835 111.916 12.4164 111.916 13.3151V14.4145C112.52 14.3273 113.151 14.2662 113.835 14.2662C118.827 14.2662 122.566 17.0583 122.566 21.4646C122.566 24.4051 120.816 26.9965 116.953 28.9336L116.917 29.1168C118.152 30.4431 119.448 31.9962 120.603 33.1654C120.754 33.3225 121.012 33.2876 121.118 33.1043C122.122 31.4291 122.904 29.1081 123.259 27.1362C123.259 27.11 123.286 27.0925 123.303 27.0664C123.294 26.9006 123.25 26.7435 123.25 26.569C123.25 25.5569 123.463 24.6756 123.89 23.9078C124.316 23.1399 124.911 22.5466 125.666 22.119C126.421 21.6915 127.291 21.4821 128.269 21.4821C129.246 21.4821 130.116 21.7002 130.871 22.1452C131.626 22.5902 132.221 23.1835 132.647 23.9339C133.074 24.6843 133.287 25.5569 133.287 26.569C133.287 27.5812 133.074 28.4101 132.647 29.1692C132.221 29.937 131.617 30.5391 130.844 30.9841C130.374 31.2545 129.841 31.4116 129.29 31.525C128.029 35.4951 126.11 38.4094 123.827 40.4686C124.325 40.7303 124.831 40.9834 125.391 41.1928C126.981 41.7774 128.677 42.0741 130.471 42.0741C133.447 42.0741 136.049 41.4109 138.279 40.0759C140.499 38.7409 142.24 36.9173 143.484 34.5964C143.804 33.9943 144.088 33.3574 144.328 32.7117V40.774C144.328 41.1579 144.647 41.472 145.038 41.472H155.617C156.008 41.472 156.328 41.1579 156.328 40.774V2.79227C156.328 2.40835 156.008 2.09424 155.617 2.09424H155.608Z" fill="#1F8F86"/>
<path d="M200.233 19.292C201.05 19.292 202.071 19.484 203.297 19.8679C204.087 20.1122 204.834 20.5223 205.544 21.0807C206.228 21.6217 207.205 21.6042 207.809 20.9847L211.913 16.8489C212.561 16.1945 212.552 15.1387 211.877 14.5192C210.571 13.3326 208.982 12.3989 207.09 11.7271C204.603 10.8371 202.027 10.3921 199.371 10.3921C196.715 10.3921 194.459 10.8284 192.478 11.6922C190.498 12.5647 188.97 13.7339 187.886 15.2085C187.664 15.5052 187.487 15.8193 187.309 16.1334V13.0621C187.309 12.1633 186.563 11.4304 185.648 11.4304H176.979C176.064 11.4304 175.318 12.1633 175.318 13.0621V28.7416C175.318 29.6665 175.025 30.4256 174.43 31.0102C173.834 31.5948 173.115 31.8915 172.253 31.8915C171.641 31.8915 171.099 31.7606 170.628 31.4988C170.157 31.2371 169.793 30.8619 169.527 30.382C169.26 29.9021 169.127 29.3524 169.127 28.7503V13.0533C169.127 12.1546 168.381 11.4217 167.466 11.4217H158.797C157.882 11.4217 157.136 12.1546 157.136 13.0533V28.6107C157.136 31.1935 157.784 33.497 159.099 35.5125C160.405 37.5281 162.19 39.1074 164.455 40.233C166.72 41.3586 169.322 41.9257 172.262 41.9257C175.202 41.9257 177.805 41.3586 180.07 40.233C181.864 39.343 183.33 38.1651 184.511 36.7254C184.591 37.0831 184.751 37.4234 185.071 37.6677C185.87 38.2872 186.776 38.8544 187.771 39.3866C189.378 40.233 191.128 40.8961 193.002 41.3847C194.877 41.8734 196.76 42.1089 198.634 42.1089C202.631 42.1089 205.819 41.2451 208.182 39.5088C210.554 37.7724 211.735 35.434 211.735 32.4848C211.735 30.5914 211.406 29.047 210.758 27.8516C210.101 26.665 209.257 25.7052 208.218 24.9722C207.178 24.248 206.086 23.6809 204.94 23.2795C203.794 22.8781 202.702 22.5553 201.663 22.311C200.623 22.0667 199.771 21.8049 199.122 21.5257C198.465 21.2465 198.145 20.88 198.145 20.435C198.145 20.1122 198.296 19.8417 198.607 19.6148C198.918 19.3967 199.451 19.2833 200.233 19.2833V19.292ZM199.033 30.9142C199.708 31.1935 200.046 31.621 200.046 32.1882C200.046 32.511 199.851 32.764 199.46 32.9473C199.069 33.1305 198.527 33.2178 197.834 33.2178C196.324 33.2178 194.885 32.9385 193.518 32.3714C192.629 32.0049 191.812 31.5512 191.084 31.0102C190.418 30.5129 189.485 30.5914 188.908 31.176L186.27 33.8547C186.954 32.2754 187.309 30.5303 187.309 28.6107V24.9373C187.948 26.0716 188.783 26.9704 189.814 27.6073C190.871 28.2704 191.99 28.8027 193.153 29.1779C194.317 29.5618 195.418 29.8759 196.458 30.1202C197.497 30.3645 198.358 30.6263 199.025 30.9055L199.033 30.9142Z" fill="#1F8F86"/>
</svg>
