<svg width="48" height="48" viewBox="0 0 48 48" fill="none" xmlns="http://www.w3.org/2000/svg">
<g clip-path="url(#clip0_1_250)">
<path d="M15.75 30C21.1348 30 25.5 25.6348 25.5 20.25C25.5 14.8652 21.1348 10.5 15.75 10.5C10.3652 10.5 6 14.8652 6 20.25C6 25.6348 10.3652 30 15.75 30Z" stroke="#1F8F86" stroke-width="3" stroke-linecap="round" stroke-linejoin="round"/>
<path d="M1.91809 37.5C3.41638 35.1963 5.46633 33.3033 7.88184 31.9929C10.2973 30.6825 13.0019 29.9961 15.75 29.9961C18.498 29.9961 21.2026 30.6825 23.6181 31.9929C26.0336 33.3033 28.0836 35.1963 29.5818 37.5" stroke="#1F8F86" stroke-width="3" stroke-linecap="round" stroke-linejoin="round"/>
<path d="M32.25 30C34.9979 29.9984 37.7027 30.6837 40.1184 31.9935C42.534 33.3033 44.584 35.1962 46.0819 37.5" stroke="#1F8F86" stroke-width="3" stroke-linecap="round" stroke-linejoin="round"/>
<path d="M28.6294 11.1937C29.9631 10.6618 31.3979 10.431 32.8311 10.5179C34.2644 10.6047 35.6608 11.007 36.9205 11.6961C38.1802 12.3852 39.2722 13.344 40.1184 14.5041C40.9646 15.6641 41.5442 16.9968 41.8156 18.4068C42.0871 19.8168 42.0437 21.2693 41.6887 22.6606C41.3337 24.0519 40.6758 25.3476 39.7619 26.4552C38.8481 27.5627 37.7009 28.4548 36.4024 29.0676C35.1038 29.6803 33.6859 29.9987 32.25 30" stroke="#1F8F86" stroke-width="3" stroke-linecap="round" stroke-linejoin="round"/>
</g>
<defs>
<clipPath id="clip0_1_250">
<rect width="48" height="48" fill="white"/>
</clipPath>
</defs>
</svg>
